<?xml version="1.0" encoding="utf-8"?>
<!-- Generator: Adobe Illustrator 22.0.1, SVG Export Plug-In . SVG Version: 6.00 Build 0)  -->
<svg version="1.1" id="Ebene_1" xmlns="http://www.w3.org/2000/svg" xmlns:xlink="http://www.w3.org/1999/xlink" x="0px" y="0px"
	 viewBox="0 0 141.7 141.7" style="enable-background:new 0 0 141.7 141.7;" xml:space="preserve">
<style type="text/css">
	.st0{fill:#EEEEEE;}
	.st1{fill:#03CC85;}
</style>
<path class="st0" d="M70.9,28.4c-23.5,0-42.5,19-42.5,42.5s19,42.5,42.5,42.5s42.5-19,42.5-42.5S94.4,28.4,70.9,28.4z M70.9,106.3
	c-19.6,0-35.4-15.8-35.4-35.4c0-19.6,15.8-35.4,35.4-35.4c19.6,0,35.4,15.8,35.4,35.4C106.3,90.5,90.5,106.3,70.9,106.3z"/>
<g>
	<path class="st1" d="M70,67.1c0,2.2-0.7,3.8-2,4.9s-3.3,1.7-5.7,1.7h-1.8v7.1h-4.2v-20h6.4c2.4,0,4.3,0.5,5.5,1.6
		C69.4,63.5,70,65,70,67.1z M60.4,70.3h1.4c1.3,0,2.3-0.3,2.9-0.8s1-1.3,1-2.2c0-1-0.3-1.7-0.8-2.2s-1.4-0.7-2.5-0.7h-1.9L60.4,70.3
		L60.4,70.3z"/>
	<path class="st1" d="M85.6,75.3c0,1.8-0.7,3.2-1.9,4.3s-3.1,1.6-5.4,1.6c-2.1,0-4-0.4-5.7-1.2v-4c1.3,0.6,2.5,1,3.4,1.3
		c0.9,0.2,1.8,0.4,2.6,0.4c0.9,0,1.6-0.2,2.1-0.5c0.5-0.4,0.7-0.9,0.7-1.6c0-0.4-0.1-0.7-0.3-1s-0.5-0.6-1-0.9
		c-0.4-0.3-1.3-0.7-2.6-1.4c-1.2-0.6-2.1-1.1-2.7-1.7c-0.6-0.5-1.1-1.1-1.5-1.8c-0.4-0.7-0.5-1.5-0.5-2.5c0-1.8,0.6-3.2,1.8-4.2
		c1.2-1,2.9-1.5,5-1.5c1,0,2,0.1,3,0.4s1.9,0.6,3,1l-1.4,3.3c-1.1-0.4-1.9-0.7-2.6-0.9c-0.7-0.2-1.4-0.3-2.1-0.3
		c-0.8,0-1.4,0.2-1.8,0.6s-0.6,0.9-0.6,1.5c0,0.4,0.1,0.7,0.3,1c0.2,0.3,0.4,0.5,0.8,0.8s1.3,0.7,2.7,1.4c1.9,0.9,3.1,1.8,3.8,2.7
		C85.2,72.9,85.6,74,85.6,75.3z"/>
</g>
<path class="st1" d="M70.9,28.3v7.2c19.6,0,35.4,15.8,35.4,35.4c0,19.6-15.8,35.4-35.4,35.4c-19.6,0-35.4-15.8-35.4-35.4h-7.1
	c0,23.5,19,42.5,42.5,42.5s42.5-19,42.5-42.5S94.3,28.3,70.9,28.3z"/>
</svg>
