<?xml version="1.0" encoding="utf-8"?>
<!-- Generator: Adobe Illustrator 22.0.1, SVG Export Plug-In . SVG Version: 6.00 Build 0)  -->
<svg version="1.1" id="Ebene_1" xmlns="http://www.w3.org/2000/svg" xmlns:xlink="http://www.w3.org/1999/xlink" x="0px" y="0px"
	 viewBox="0 0 141.7 141.7" style="enable-background:new 0 0 141.7 141.7;" xml:space="preserve">
<style type="text/css">
	.st0{fill:#EEEEEE;}
	.st1{fill:#03CC85;}
</style>
<path class="st0" d="M70.9,28.4c-23.5,0-42.5,19-42.5,42.5s19,42.5,42.5,42.5s42.5-19,42.5-42.5S94.4,28.4,70.9,28.4z M70.9,106.3
	c-19.6,0-35.4-15.8-35.4-35.4c0-19.6,15.8-35.4,35.4-35.4c19.6,0,35.4,15.8,35.4,35.4C106.3,90.5,90.5,106.3,70.9,106.3z"/>
<g>
	<path class="st1" d="M72.6,80.9l-1.4-4.8h-7.3l-1.4,4.8h-4.6L65,60.8h5.2l7.1,20.1H72.6z M70.1,72.6c-1.3-4.3-2.1-6.7-2.3-7.3
		c-0.2-0.6-0.3-1-0.4-1.3c-0.3,1.2-1.2,4.1-2.6,8.7L70.1,72.6L70.1,72.6z"/>
	<path class="st1" d="M79.7,80.9v-20h4.2v20H79.7z"/>
</g>
<path class="st1" d="M70.9,28.4v7.1c19.6,0,35.4,15.8,35.4,35.4c0,19.6-15.8,35.4-35.4,35.4v7.1c23.5,0,42.5-19,42.5-42.5
	S94.3,28.3,70.9,28.4z"/>
</svg>
