<?xml version="1.0" encoding="utf-8"?>
<!-- Generator: Adobe Illustrator 22.0.1, SVG Export Plug-In . SVG Version: 6.00 Build 0)  -->
<svg version="1.1" id="Ebene_1" xmlns="http://www.w3.org/2000/svg" xmlns:xlink="http://www.w3.org/1999/xlink" x="0px" y="0px"
	 viewBox="0 0 141.7 141.7" style="enable-background:new 0 0 141.7 141.7;" xml:space="preserve">
<style type="text/css">
	.st0{fill:#EEEEEE;}
	.st1{fill:#03CC85;}
</style>
<path class="st0" d="M70.9,28.4c-23.5,0-42.5,19-42.5,42.5s19,42.5,42.5,42.5s42.5-19,42.5-42.5S94.4,28.4,70.9,28.4z M70.9,106.3
	c-19.6,0-35.4-15.8-35.4-35.4c0-19.6,15.8-35.4,35.4-35.4c19.6,0,35.4,15.8,35.4,35.4C106.3,90.5,90.5,106.3,70.9,106.3z"/>
<g>
	<path class="st1" d="M63.9,78.1l-13.6-6v-2l13.6-6.8v3.3L54.5,71l9.4,3.8V78.1z"/>
	<path class="st1" d="M76.5,60.9l-7.5,20h-3.8l7.5-20H76.5z"/>
	<path class="st1" d="M77.9,74.8l9.4-3.8l-9.4-4.3v-3.3l13.6,6.8v2l-13.6,6V74.8z"/>
</g>
<path class="st1" d="M70.9,28.3v7.2c19.6,0,35.4,15.8,35.4,35.4c0,19.6-15.8,35.4-35.4,35.4c-6.9,0-13.4-2-18.9-5.4l-5.1,5.1
	c6.8,4.7,15.1,7.4,24,7.4c23.5,0,42.5-19,42.5-42.5S94.3,28.3,70.9,28.3z"/>
</svg>
